# Blender v2.81 (sub 16) OBJ File: ''
# www.blender.org
mtllib Icicles.mtl
o Cube
v 1.000000 1.000000 -1.000000
v 1.000000 -1.000000 -1.000000
v 1.000000 1.000000 1.000000
v 1.000000 -1.000000 1.000000
v -1.000000 1.000000 -1.000000
v -1.000000 -1.000000 -1.000000
v -1.000000 1.000000 1.000000
v -1.000000 -1.000000 1.000000
v 1.000000 1.000000 1.000000
v -1.000000 1.000000 1.000000
v 1.000000 1.000000 -1.000000
v -1.000000 1.000000 -1.000000
v 0.007322 5.124796 0.007322
v -0.007322 5.124796 0.007322
v 0.007322 5.124796 -0.007322
v -0.007322 5.124796 -0.007322
vt 0.000000 0.000000
vt 0.000000 0.000000
vt 0.000000 0.000000
vt 0.000000 0.000000
vt 0.554501 0.555376
vt 0.696311 0.555376
vt 0.696311 0.694476
vt 0.554501 0.694476
vt 0.444371 0.694476
vt 0.302561 0.694476
vt 0.302561 0.555376
vt 0.444371 0.555376
vt 0.052051 0.944058
vt 0.052051 0.804957
vt 0.194856 0.804957
vt 0.194855 0.944058
vt 0.945827 0.692926
vt 0.804017 0.692926
vt 0.804017 0.553826
vt 0.945827 0.553826
vt 0.055151 0.554959
vt 0.196961 0.554959
vt 0.196961 0.694059
vt 0.055152 0.694059
vt 0.548056 0.019365
vt 0.703511 0.019365
vt 0.626353 0.338339
vt 0.625214 0.338339
vt 0.000000 0.000000
vt 0.000000 0.000000
vt 0.000000 0.000000
vt 0.000000 0.000000
vt 0.875850 0.875319
vt 0.874712 0.875319
vt 0.874712 0.874211
vt 0.875850 0.874211
vt 0.796913 0.020644
vt 0.952368 0.020644
vt 0.875210 0.339618
vt 0.874072 0.339618
vt 0.452335 0.334968
vt 0.296880 0.334968
vt 0.374038 0.015994
vt 0.375176 0.015994
vt 0.202318 0.336518
vt 0.046863 0.336518
vt 0.124021 0.017544
vt 0.125159 0.017544
vn 0.0000 0.0000 1.0000
vn -1.0000 0.0000 0.0000
vn 0.0000 -1.0000 0.0000
vn 1.0000 0.0000 0.0000
vn 0.0000 0.0000 -1.0000
vn -0.9722 0.2340 0.0000
vn 0.0000 1.0000 0.0000
vn 0.0000 0.2340 0.9722
vn 0.0000 0.2340 -0.9722
vn 0.9722 0.2340 0.0000
usemtl Material
s off
f 5/1/1 7/2/1 10/3/1 12/4/1
f 4/5/1 3/6/1 7/7/1 8/8/1
f 8/9/2 7/10/2 5/11/2 6/12/2
f 6/13/3 2/14/3 4/15/3 8/16/3
f 2/17/4 1/18/4 3/19/4 4/20/4
f 6/21/5 5/22/5 1/23/5 2/24/5
f 12/25/6 10/26/6 14/27/6 16/28/6
f 3/29/1 1/30/1 11/31/1 9/32/1
f 1/30/1 5/1/1 12/4/1 11/31/1
f 7/2/1 3/29/1 9/32/1 10/3/1
f 15/33/7 16/34/7 14/35/7 13/36/7
f 10/37/8 9/38/8 13/39/8 14/40/8
f 11/41/9 12/42/9 16/43/9 15/44/9
f 9/45/10 11/46/10 15/47/10 13/48/10
